<svg width="14" height="14" viewBox="0 0 14 14" fill="none" xmlns="http://www.w3.org/2000/svg">
<path d="M12 7.00004C12 6.84671 11.9934 6.70004 11.98 6.54671L13.22 5.60671C13.4867 5.40671 13.56 5.03337 13.3934 4.74004L12.1467 2.58671C11.98 2.29337 11.62 2.17337 11.3134 2.30671L9.88002 2.91337C9.63335 2.74004 9.37335 2.58671 9.10002 2.46004L8.90669 0.920041C8.86669 0.586707 8.58002 0.333374 8.24669 0.333374H5.76002C5.42002 0.333374 5.13335 0.586707 5.09335 0.920041L4.90002 2.46004C4.62669 2.58671 4.36669 2.74004 4.12002 2.91337L2.68669 2.30671C2.38002 2.17337 2.02002 2.29337 1.85335 2.58671L0.606688 4.74671C0.440021 5.04004 0.513354 5.40671 0.780021 5.61337L2.02002 6.55337C2.00669 6.70004 2.00002 6.84671 2.00002 7.00004C2.00002 7.15337 2.00669 7.30004 2.02002 7.45337L0.780021 8.39337C0.513354 8.59337 0.440021 8.96671 0.606688 9.26004L1.85335 11.4134C2.02002 11.7067 2.38002 11.8267 2.68669 11.6934L4.12002 11.0867C4.36669 11.26 4.62669 11.4134 4.90002 11.54L5.09335 13.08C5.13335 13.4134 5.42002 13.6667 5.75335 13.6667H8.24002C8.57335 13.6667 8.86002 13.4134 8.90002 13.08L9.09335 11.54C9.36669 11.4134 9.62669 11.26 9.87335 11.0867L11.3067 11.6934C11.6134 11.8267 11.9734 11.7067 12.14 11.4134L13.3867 9.26004C13.5534 8.96671 13.48 8.60004 13.2134 8.39337L11.9734 7.45337C11.9934 7.30004 12 7.15337 12 7.00004ZM7.02669 9.33337C5.74002 9.33337 4.69335 8.28671 4.69335 7.00004C4.69335 5.71337 5.74002 4.66671 7.02669 4.66671C8.31335 4.66671 9.36002 5.71337 9.36002 7.00004C9.36002 8.28671 8.31335 9.33337 7.02669 9.33337Z" fill="white"/>
</svg>
