<svg width="12" height="14" viewBox="0 0 12 14" fill="none" xmlns="http://www.w3.org/2000/svg">
<path d="M6.00083 13.5C6.73416 13.5 7.33416 12.9 7.33416 12.1667H4.66749C4.66749 12.9 5.26083 13.5 6.00083 13.5ZM10.0008 9.5V6.16667C10.0008 4.12 8.90749 2.40667 7.00083 1.95333V1.5C7.00083 0.946667 6.55416 0.5 6.00083 0.5C5.44749 0.5 5.00083 0.946667 5.00083 1.5V1.95333C3.08749 2.40667 2.00083 4.11333 2.00083 6.16667V9.5L1.14083 10.36C0.720828 10.78 1.01416 11.5 1.60749 11.5H10.3875C10.9808 11.5 11.2808 10.78 10.8608 10.36L10.0008 9.5Z" fill="black"/>
</svg>
