<svg width="48" height="48" viewBox="0 0 48 48" fill="none" xmlns="http://www.w3.org/2000/svg">
<path fill-rule="evenodd" clip-rule="evenodd" d="M41.7214 41.1713C40.9394 37.4392 38.166 34.5432 34.436 33.1005C33.719 32.692 33.024 30.9392 32.0604 30.6182C31.9059 30.5667 32.1497 30.9762 32.0604 31.0007C31.7417 31.0879 31.3846 31.097 31.0328 30.782C30.404 30.219 30.2067 28.5742 29.8243 27.8307C27.808 23.91 22.7735 25.4441 22.099 29.7784C21.6287 30.0871 20.9639 30.3591 20.4519 30.608C19.9248 30.8642 19.4611 31.4848 18.9179 31.7067C18.4332 31.9046 17.6345 31.7644 17.1461 31.937C14.8997 32.7308 12.997 33.7324 11.5053 35.7618C11.191 36.1898 10.8367 36.716 10.5507 37.1484C9.0761 38.8584 8.05187 40.775 7.10855 42.8313C4.46934 48.8668 3.75148 55.5495 3.10742 62.0525C3.12207 63.1903 2.37255 66.3453 3.48111 66.8908C3.41486 66.96 3.43886 67.099 3.56179 67.0978C6.37266 67.0692 9.177 67.3226 11.9443 67.8152C13.2794 68.053 14.6074 68.379 15.9674 68.4325C18.7906 68.4129 21.6036 67.9363 24.423 68.3873C27.8124 68.3873 31.9316 68.2878 35.7023 68.1418C39.2264 68.0053 42.7694 68.3135 46.2498 67.7099C46.5253 67.6659 46.6598 67.3275 46.6021 67.0849C46.1937 65.5861 45.9933 64.0435 45.7642 62.5094C45.8098 61.5255 45.7282 60.4983 45.3668 59.5818C44.4227 53.3949 43.212 47.2483 41.7214 41.1713Z" fill="white"/>
<path fill-rule="evenodd" clip-rule="evenodd" d="M40.5841 49.3035C40.5098 49.6673 40.4055 50.031 40.2669 50.3756C40.1334 50.7081 39.9323 51.006 39.7938 51.3346C39.7752 51.3789 39.7448 51.4124 39.7081 51.4379L39.7195 51.5273L39.73 51.6167C39.7991 52.2199 39.8769 52.8214 39.9442 53.4245L39.9769 53.7262C40.1092 54.9854 40.3182 56.2385 40.4805 57.4944C40.6393 58.7242 40.8011 59.954 40.974 61.1821C41.1526 62.4483 41.3346 63.7127 41.5469 64.9737C41.6366 65.5063 41.7302 66.0384 41.8277 66.5701L41.903 66.977C42.6782 67.1649 42.89 68.2534 42.1007 68.6552C41.7425 68.8368 41.2822 68.7931 40.9869 68.5077C40.6801 68.2102 40.6674 67.6738 40.5962 67.271L40.5276 66.8966C40.0143 64.0815 39.5687 61.234 39.3605 58.3792C39.3069 57.642 39.2619 56.9043 39.2326 56.1659C39.2047 55.4714 39.218 54.7769 39.2074 54.0824L39.2038 53.893C39.1876 53.1524 39.201 52.4129 39.2202 51.6723C39.2224 51.5821 39.2264 51.4918 39.2309 51.401C39.205 51.3704 39.1864 51.3341 39.1786 51.2989L39.1684 51.2523C39.143 51.1326 39.1717 50.9924 39.2631 50.9067C39.3024 50.4022 39.3543 49.8982 39.3684 49.3943C39.3695 49.3529 39.4286 49.3541 39.4321 49.3943C39.4653 49.8233 39.5317 50.2535 39.5982 50.6831C40.0258 50.3369 40.3419 49.766 40.5284 49.2882C40.5419 49.2535 40.5921 49.266 40.5841 49.3035ZM30.4669 29.2463C30.5379 29.5732 30.6782 29.8667 30.8664 30.1397C30.956 30.2702 31.0579 30.3916 31.1802 30.4932C31.285 30.58 31.4045 30.6368 31.516 30.7123C31.6782 30.6867 31.8478 30.7486 31.9616 30.8689L31.9436 30.693C31.9379 30.6362 32.0315 30.6249 32.0422 30.6799C32.5351 33.1839 32.9846 35.6894 33.3737 38.2115L33.5443 39.3253L33.7048 40.3709C33.9712 42.1133 34.229 43.855 34.423 45.6101C34.6816 47.9523 34.899 50.3006 35.0579 52.6524C35.2174 55.0207 35.3154 57.3905 35.3853 59.7634C35.4027 60.3615 35.4214 60.9591 35.4393 61.5572L35.5597 60.8421C35.6798 60.1269 35.7975 59.4109 35.8985 58.6925C36.2607 56.1211 36.5504 53.5314 36.6917 50.9379C36.8214 48.5646 36.778 46.1442 36.1785 43.832C36.0275 43.2503 35.8427 42.6777 35.6197 42.1199C35.4033 41.5774 35.1081 41.0745 34.8754 40.5399C34.605 39.918 34.5238 39.3311 34.663 38.6615C34.7847 38.0781 34.9983 37.5293 35.0365 36.9289C35.1081 35.8143 34.7481 34.7348 34.2394 33.7593C34.1052 33.5022 33.9638 33.2485 33.8162 32.9971C33.3695 32.2372 32.8658 31.5051 32.343 30.8031C32.3149 30.7656 32.3745 30.7242 32.405 30.7549C32.8816 31.2293 33.4027 31.6958 33.8315 32.2139C34.0399 32.4659 34.2433 32.7229 34.4359 32.9869C36.5498 33.3427 38.3661 34.669 39.6078 36.4204C41.0168 38.4078 41.7295 40.7999 42.2569 43.1556C42.8433 45.7736 43.338 48.4153 43.8647 51.0463C44.41 53.7687 44.9526 56.4911 45.5013 59.2129C45.774 60.5641 46.0467 61.9154 46.3188 63.2672C46.4568 63.9516 46.6016 64.6344 46.7531 65.3165C46.8309 65.6661 46.9143 66.0151 46.9864 66.3658C47.0675 66.7614 46.992 67.0144 46.7261 67.3051C46.6281 67.4129 46.4731 67.4112 46.3514 67.3539L46.3134 67.3358L46.2766 67.318C46.1261 67.2434 46.008 67.1662 45.9143 67.0003C45.8112 66.8181 45.7948 66.6161 45.7594 66.4135C45.694 66.0406 45.6292 65.6678 45.5639 65.2944C45.4662 64.7359 45.3601 64.1791 45.252 63.6224L44.7098 60.8403C44.5652 60.0985 44.4205 59.3567 44.2748 58.6153C43.7548 55.9639 43.2343 53.313 42.7138 50.6621C42.214 48.1168 41.7717 45.5539 41.2028 43.0233L41.1704 42.8808L41.1375 42.7384C40.6287 40.5569 39.9179 38.4466 38.6281 36.598C37.6354 35.1764 36.2569 33.9068 34.6331 33.2644C34.7476 33.4301 34.8574 33.5992 34.9622 33.7718C35.6202 34.8546 36.1007 36.14 35.9881 37.4294C35.9329 38.0593 35.6952 38.6785 35.7176 39.3135C35.7385 39.8777 36.085 40.3731 36.3245 40.8639C36.8681 41.9763 37.2614 43.1585 37.5149 44.3712C38.0236 46.8064 38.0219 49.312 37.8467 51.7841C37.6562 54.4713 37.2946 57.1579 36.8828 59.8189C36.6715 61.1838 36.3904 62.5374 36.1751 63.9C36.0687 64.5719 35.9238 65.2422 35.7971 65.9107L35.7367 66.2301C35.7028 66.4073 35.6677 66.584 35.6272 66.7588L35.6022 66.8635V66.8822C35.6011 67.0111 35.5661 67.1178 35.5098 67.2029C35.4326 67.452 35.3369 67.695 35.2095 67.9282C35.1442 68.0474 35.0495 68.1143 34.9464 68.1388C34.8427 68.3777 34.6078 68.5615 34.3273 68.5604L30.6376 68.5462C28.4945 68.5377 26.3514 68.5235 24.2083 68.5116C23.6676 68.5088 23.1273 68.4986 22.587 68.4844C22.0805 68.4702 21.5949 68.4089 21.094 68.3453C20.5283 68.2738 20.2219 67.8703 20.3064 67.3011C20.325 67.1756 20.3452 67.0508 20.3645 66.926C20.2518 66.9634 20.1177 66.9458 20.027 66.8567L19.942 66.7729C19.8241 66.6554 19.7186 66.5401 19.6439 66.3834C19.5667 66.2223 19.5041 66.052 19.436 65.8874C19.2889 65.5333 19.1459 65.178 19.0067 64.8211C18.7278 64.1071 18.449 63.3904 18.1898 62.669C17.6766 61.2406 17.2224 59.7906 16.8276 58.3242C16.1233 55.7079 15.614 53.0412 15.2929 50.3506L15.2161 49.7093L15.1938 49.5199C15.072 48.477 14.9695 47.418 15.0179 46.3774C15.0478 45.7258 15.1481 45.0693 15.3898 44.4608C15.6129 43.8996 15.9571 43.4195 16.2844 42.9178L16.3219 42.8599L16.3595 42.8006C16.6458 42.3449 16.8736 41.8685 16.885 41.3152C16.8965 40.7536 16.7341 40.2071 16.5525 39.6814L16.5073 39.5517L16.4769 39.4659C16.0906 38.3793 15.651 37.3081 15.796 36.1258C16.0101 34.3847 17.0579 32.9812 18.3763 31.899C17.2038 32.1328 16.0433 32.5947 15.0191 33.1804C13.8095 33.8728 12.7205 34.7865 11.7813 35.8177C10.0067 37.7664 8.73962 40.1047 7.70249 42.5189C6.6168 45.0454 5.81173 47.6929 5.20503 50.375C4.59488 53.0724 4.18643 55.8129 3.9075 58.5642C3.76841 59.9336 3.65905 61.3064 3.56841 62.6798C3.52221 63.3835 3.48728 64.0884 3.43319 64.791C3.37911 65.493 3.35483 66.2057 3.18469 66.8891C3.10525 67.2075 2.56948 67.2398 2.51207 66.8891C2.38466 66.1058 2.42027 65.2958 2.45583 64.5027L2.45905 64.4306C2.49404 63.6406 2.53967 62.8512 2.5937 62.0618C2.70418 60.4484 2.85173 58.8372 3.04441 57.2311C3.7199 51.5934 4.96559 45.9853 7.40897 40.839C8.55939 38.4152 10.036 36.06 12.0901 34.3098C13.0681 33.4772 14.1706 32.8126 15.3588 32.3314C16.4214 31.9007 17.5008 31.6969 18.6298 31.6975C19.196 31.2605 19.8039 30.8797 20.4112 30.5545C20.4478 30.5347 20.4861 30.5823 20.4557 30.613C20.44 30.6283 20.4247 30.6441 20.409 30.6589C20.4777 30.6635 20.5486 30.6958 20.6123 30.7634C20.8354 30.9988 21.0236 31.2934 21.192 31.5993C21.4483 31.9217 21.6929 32.2547 21.9487 32.5737C22.3582 33.0844 22.7774 33.5878 23.2016 34.0872C23.9142 34.9266 24.6499 35.75 25.4171 36.5403L25.5453 36.6717C25.943 37.0775 26.3459 37.5633 26.8162 37.8845L26.8413 37.9013C27.0398 38.0316 27.1805 38.0552 27.3498 37.8607C27.5036 37.6836 27.6317 37.4782 27.7633 37.283L27.7938 37.2381C28.4659 36.2546 29.089 35.2348 29.6529 34.1849C29.91 33.7071 30.1545 33.2224 30.3865 32.7323L30.4557 32.5851C30.5819 32.315 30.7188 32.0499 30.823 31.7718C30.8472 31.7066 30.8709 31.6413 30.894 31.5766C30.5391 31.3422 30.2642 30.8349 30.1645 30.4376C30.0608 30.025 30.1132 29.6016 30.2979 29.2243C30.3329 29.1533 30.45 29.1709 30.4669 29.2463ZM12.9577 46.0124C12.9086 47.5811 12.8788 49.1514 12.8055 50.7189L12.7802 51.254C12.8946 51.3823 12.9616 51.5304 12.9081 51.7336C12.8873 51.8114 12.8258 51.8817 12.7492 51.9078L12.7253 52.4054C12.6166 54.6439 12.4891 56.8778 12.2562 59.1107C11.965 61.9052 11.6281 64.695 11.2918 67.4844C11.2439 67.8794 10.9712 68.1926 10.5469 68.1348C10.1177 68.0763 9.94362 67.7 9.99996 67.3079C10.2214 65.7694 10.4343 64.2297 10.6208 62.6861L10.8332 60.9274C11.0995 58.729 11.3721 56.531 11.6862 54.3396C11.8174 53.4237 11.9538 52.5083 12.0906 51.5928L12.0428 51.5304C11.8472 51.2745 11.645 51.0242 11.445 50.7722C11.0608 50.2865 10.6816 49.8046 10.3295 49.2961C10.312 49.2705 10.3476 49.2331 10.3729 49.2524C10.8664 49.6196 11.3335 50.0123 11.8033 50.4113L12.2146 50.762C12.4512 49.1803 12.6856 47.5981 12.8946 46.0124C12.8997 45.9728 12.9588 45.9699 12.9577 46.0124ZM20.0569 31.0006C19.7599 31.2826 19.4563 31.5585 19.1571 31.8388L19.0475 31.942L18.9384 32.0456C18.4126 32.548 17.9088 33.0709 17.489 33.6713C16.7183 34.774 16.2591 36.1184 16.5796 37.4646C16.8456 38.5797 17.4557 39.5905 17.6197 40.7335C17.7019 41.3061 17.6619 41.8816 17.4478 42.4223C17.2292 42.974 16.8799 43.4468 16.5661 43.9445C15.8844 45.0262 15.7914 46.2134 15.8591 47.4665C15.9301 48.7752 16.0793 50.0844 16.2636 51.3812C16.6365 54.0088 17.1988 56.6091 17.943 59.1556C18.3154 60.4308 18.7554 61.6787 19.1932 62.9318C19.4112 63.5555 19.6653 64.1644 19.9272 64.7705C20.0652 65.0895 20.2067 65.4067 20.3504 65.7234C20.2974 65.2762 20.2974 64.8171 20.2714 64.3727C20.2343 63.736 20.1869 63.1004 20.1436 62.4642C20.0552 61.1731 19.9763 59.8808 19.9059 58.5886C19.6563 53.9804 19.4726 49.3682 19.4861 44.7526C19.4929 42.4445 19.5397 40.1364 19.6383 37.8306C19.6845 36.7447 19.774 35.6599 19.8549 34.5756L19.8721 34.3433C19.9436 33.37 20.0292 32.3944 20.1762 31.4296C20.1327 31.3307 20.0949 31.2305 20.0669 31.1278L20.0569 31.0891L20.0642 31.0903C20.0574 31.0601 20.0552 31.0301 20.0569 31.0006ZM22.6248 27.0348C22.6309 27.0081 22.6686 27.0104 22.6754 27.0348C22.8427 27.6023 22.7836 28.2266 22.6394 28.7975C22.5617 29.1068 22.4512 29.407 22.3177 29.6964L22.271 29.7977C22.1566 30.0442 22.0278 30.2982 21.805 30.4518C21.7121 30.5159 21.5458 30.5199 21.4529 30.4518L21.4055 30.4156C21.3977 30.4094 21.39 30.4032 21.3824 30.3967C21.2957 30.3235 21.2529 30.1618 21.2929 30.0551C21.396 29.7799 21.6298 29.5778 21.7915 29.3327C21.9346 29.1147 22.0614 28.8849 22.1667 28.646C22.3937 28.129 22.4957 27.5802 22.6248 27.0348Z" fill="black"/>
<path fill-rule="evenodd" clip-rule="evenodd" d="M27.6215 8.18398C36.1011 8.4544 36.6126 12.5117 36.6126 19.3159C36.6126 26.1201 32.2137 30.4077 30.594 31.1564C28.9743 31.9051 24.7093 35.1209 20.8604 33.639C17.0116 32.157 18.1261 25.896 18.1261 23.2059C18.1261 20.5157 19.1419 7.91355 27.6215 8.18398Z" fill="white"/>
<path fill-rule="evenodd" clip-rule="evenodd" d="M31.0615 28.9219C29.5043 29.7976 27.7213 29.8316 26.0463 29.2806C25.0418 28.9509 24.1207 28.4412 23.2587 27.8317C22.5089 27.3011 21.8396 26.7126 21.1765 26.0877C20.6305 24.875 20.1444 23.6644 19.9167 22.345C19.7128 21.1606 19.6858 19.9308 19.9224 18.7486C21.6723 17.2986 23.4114 15.8367 25.1483 14.3703C26.0328 13.6234 26.9196 12.8806 27.817 12.1496C28.2728 11.7784 28.7241 11.4016 29.1781 11.0287C29.2531 10.9674 29.3275 10.9061 29.4024 10.8449C30.3398 11.5361 31.3449 12.1286 32.2757 12.8312C32.7629 13.1995 33.2367 13.5916 33.688 14.0042C33.9246 14.2204 34.1557 14.4435 34.381 14.6722C34.5872 14.8811 34.786 15.1807 35.0785 15.2596C35.1185 15.2703 35.1562 15.2726 35.1917 15.2675C35.5827 18.7157 35.8604 22.4392 34.1855 25.5707C33.4548 26.9367 32.4188 28.158 31.0615 28.9219ZM20.9314 30.1892C20.717 29.9913 21.0366 29.6711 21.2501 29.8681C22.5913 31.1056 24.3446 31.7616 26.1157 32.0653C26.4014 32.1143 26.2796 32.5517 25.9958 32.503C24.1468 32.186 22.3294 31.4791 20.9314 30.1892ZM19.3221 32.088C19.0661 31.9496 19.294 31.5578 19.5495 31.6959C20.5944 32.2604 21.7405 32.5537 22.903 32.7518C23.1889 32.8005 23.0669 33.2378 22.7832 33.1896C21.5812 32.9848 20.4018 32.6712 19.3221 32.088ZM23.5748 12.9612C24.4418 12.1774 25.3736 11.4316 26.3579 10.8023C27.3539 10.1655 28.4418 9.78474 29.6176 9.77566C29.5353 9.84206 29.457 9.91584 29.3776 9.98445C29.1557 10.1758 28.9342 10.3681 28.7128 10.56C28.27 10.9442 27.826 11.3278 27.3889 11.7183C26.528 12.4878 25.6643 13.2534 24.8052 14.0246C23.1539 15.507 21.5382 17.0216 19.9573 18.5801C19.9658 18.5421 19.9748 18.504 19.9838 18.4661C20.5072 16.2641 21.9308 14.4474 23.5748 12.9612ZM30.3714 9.87157C30.377 9.85454 30.381 9.83803 30.3833 9.8222C32.6396 10.1184 34.5241 11.7908 35.1472 13.9929C35.0931 14.0689 35.0632 14.1591 35.0745 14.255C35.0801 14.3033 35.0858 14.3521 35.0914 14.4003C35.0142 14.3232 34.9348 14.2511 34.8672 14.1824C34.6424 13.9531 34.412 13.73 34.1753 13.5127C33.6914 13.0684 33.1889 12.653 32.6593 12.2653C31.7382 11.5911 30.741 10.9714 29.6429 10.6479C29.7151 10.5883 29.7872 10.5288 29.8599 10.4697C30.0767 10.292 30.2779 10.1457 30.3714 9.87157ZM34.4165 7.51695C33.0312 5.99204 31.1128 4.87517 29.0926 4.48699C27.1635 4.11584 25.1663 4.36043 23.3438 5.08174C19.5303 6.59133 16.5212 9.91078 15.1122 13.7573C14.2908 15.9985 14.0215 18.4552 14.2683 20.8274C14.5139 23.1888 15.2198 25.6275 16.5043 27.6365C16.6221 27.8204 16.7511 27.9968 16.8863 28.1677C16.826 28.8612 16.5962 29.5411 16.2345 30.1324C16.2151 30.1641 16.1945 30.1952 16.1743 30.2263C15.8039 30.5057 15.4197 30.7679 15.0447 31.0386C14.7197 31.2731 14.398 31.5136 14.0923 31.7734C13.8038 32.0186 13.4688 32.2917 13.2735 32.6227C13.1134 32.8938 13.0481 33.2624 13.2665 33.5209C13.5298 33.8324 13.9759 33.7226 14.3325 33.7226C14.3631 33.7226 14.3935 33.7232 14.424 33.7236C14.5311 33.7914 14.6414 33.8527 14.7483 33.9097C15.8283 34.4864 16.9122 35.0567 17.9973 35.6242C20.1585 36.7553 22.3106 37.9318 24.5162 38.9732C25.5382 39.4561 26.6323 39.8783 27.777 39.8766C28.8509 39.8749 29.8215 39.4453 30.6598 38.7921C31.6153 38.048 32.4143 37.1032 33.1894 36.1771C33.4993 35.8064 33.8029 35.4313 34.101 35.0511C34.6734 34.8587 35.2412 34.8025 35.7517 35.1736C36.1612 35.4716 36.701 35.0664 36.7105 34.6191C36.7139 34.4603 36.7072 34.3036 36.6903 34.1493C36.5878 33.1958 36.1246 32.3332 35.6029 31.5331C35.3179 31.0955 35.0176 30.6658 34.7156 30.2402C34.6446 30.1398 34.5748 30.0393 34.5072 29.9371C35.7201 28.1382 36.6824 26.1433 37.2739 24.0588C37.8954 21.8654 38.1067 19.5908 37.9681 17.3179C37.7551 13.8345 36.8064 10.1479 34.4165 7.51695Z" fill="black"/>
<path fill-rule="evenodd" clip-rule="evenodd" d="M30.1739 26.444C29.7952 26.2884 29.4573 26.0288 29.2102 25.6971C29.1243 25.5819 29.1021 25.4601 29.1201 25.3488C29.1403 25.2236 29.2139 25.1101 29.3141 25.034C29.4147 24.9576 29.5406 24.92 29.6622 24.9392C29.7679 24.9558 29.8732 25.0141 29.9564 25.1351L29.9738 25.1592C30.1207 25.3594 30.3121 25.5236 30.5302 25.6295C30.7404 25.7315 30.9754 25.7791 31.2187 25.7514C31.682 25.6987 32.0014 25.4463 32.3408 25.1036C32.3828 25.0603 32.4249 25.0156 32.4673 24.9703C32.494 24.9292 32.531 24.9028 32.5722 24.8889C32.6179 24.8735 32.6696 24.8744 32.717 24.891C32.7626 24.9071 32.8035 24.9375 32.8308 24.978C32.8569 25.0165 32.8716 25.064 32.8668 25.1187C32.8358 25.4739 32.6514 25.791 32.3895 26.0399C32.0987 26.3163 31.7132 26.5076 31.3502 26.5747C30.9503 26.6486 30.5429 26.5956 30.1739 26.444ZM31.5388 20.9641C31.9643 21.2246 32.6125 21.832 32.1548 22.4778C31.6161 23.0472 30.8405 22.3944 30.4583 22.0991C30.1039 21.8703 29.7057 22.4588 30.0345 22.726C32.7964 24.7858 33.9172 21.0322 31.754 20.6578C31.5158 20.6166 31.4274 20.8835 31.5388 20.9641ZM26.5895 18.568C26.6365 17.9803 27.5251 17.8468 27.6135 18.4284C27.6926 18.9494 27.5995 19.428 27.3665 19.897C27.1439 20.3451 26.5844 20.1361 26.5421 19.728C26.4854 19.1811 26.5602 18.9336 26.5895 18.568ZM33.3536 18.3078C33.4775 18.1444 33.6564 18.0328 33.8707 18.0959C34.5403 18.293 34.3429 19.2505 34.1078 19.7166C33.98 19.9697 33.567 20.0339 33.3803 19.8111C33.0761 19.4476 32.9304 18.7218 33.3172 18.3638C33.3277 18.3453 33.3393 18.3267 33.3536 18.3078ZM27.3571 15.9963L27.4628 15.9776C27.79 15.9206 28.1969 15.8659 28.4283 16.1308C28.5511 16.2714 28.5933 16.5325 28.4283 16.667C28.1381 16.9037 27.8172 16.812 27.4693 16.832C27.1827 16.8486 26.9072 16.8964 26.6311 16.9759C26.0253 17.1503 25.5318 17.4687 25.0144 17.8182C24.9465 17.8641 24.8772 17.7766 24.9096 17.7127C25.2083 17.1234 25.787 16.6394 26.3668 16.3443C26.6762 16.1869 27.0148 16.0562 27.3571 15.9963ZM32.7433 15.7323L32.8242 15.749C33.7052 15.9345 34.8498 16.3051 35.267 17.1767C35.2829 17.3 35.2661 17.3264 35.2524 17.3437L35.2479 17.3494C35.2366 17.3642 35.2276 17.3845 35.1746 17.4012C35.1599 17.3977 35.145 17.394 35.13 17.39C34.9387 17.3395 34.7874 17.27 34.641 17.1978L34.4822 17.119C34.2979 17.028 34.112 16.9403 33.915 16.8756C33.4946 16.7374 33.0622 16.6401 32.6231 16.5882C32.5279 16.5769 32.4363 16.5446 32.364 16.4891C32.2953 16.4365 32.2429 16.3636 32.219 16.2667C32.188 16.1413 32.1969 16.0464 32.2637 15.9333C32.3139 15.8484 32.3857 15.7895 32.4682 15.7557C32.5523 15.7213 32.6481 15.7131 32.7433 15.7323Z" fill="black"/>
</svg>
