<svg width="18" height="14" viewBox="0 0 18 14" fill="none" xmlns="http://www.w3.org/2000/svg">
<path d="M14.3333 7.00471C14.3333 7.4936 14.7333 7.8936 15.2222 7.8936H17C17.4889 7.8936 17.8889 7.4936 17.8889 7.00471C17.8889 6.51582 17.4889 6.11582 17 6.11582H15.2222C14.7333 6.11582 14.3333 6.51582 14.3333 7.00471Z" fill="#323334"/>
<path d="M13.08 11.2892C12.7867 11.6803 12.8667 12.2225 13.2578 12.5069C13.7289 12.8536 14.2267 13.2269 14.6978 13.5825C15.0889 13.8758 15.64 13.7958 15.9244 13.4047C15.9244 13.3958 15.9333 13.3958 15.9333 13.3869C16.2267 12.9958 16.1467 12.4447 15.7556 12.1603C15.2844 11.8047 14.7867 11.4314 14.3244 11.0847C13.9333 10.7914 13.3822 10.8803 13.0889 11.2714C13.0889 11.2803 13.08 11.2892 13.08 11.2892Z" fill="#323334"/>
<path d="M15.9422 0.613595C15.9422 0.604706 15.9333 0.604706 15.9333 0.595817C15.64 0.204706 15.0889 0.124706 14.7067 0.418039C14.2356 0.773595 13.7289 1.14693 13.2667 1.50248C12.8756 1.79582 12.8044 2.34693 13.0978 2.72915C13.0978 2.73804 13.1067 2.73804 13.1067 2.74693C13.4 3.13804 13.9422 3.21804 14.3333 2.92471C14.8044 2.57804 15.3022 2.19582 15.7733 1.84026C16.1556 1.55582 16.2267 1.00471 15.9422 0.613595Z" fill="#323334"/>
<path d="M5.44445 4.33804H1.88889C0.911114 4.33804 0.111115 5.13804 0.111115 6.11582V7.8936C0.111115 8.87137 0.911114 9.67137 1.88889 9.67137H2.77778V12.338C2.77778 12.8269 3.17778 13.2269 3.66667 13.2269C4.15556 13.2269 4.55556 12.8269 4.55556 12.338V9.67137H5.44445L9.88889 12.338V1.67137L5.44445 4.33804Z" fill="#323334"/>
<path d="M12.1111 7.00471C12.1111 5.82248 11.5956 4.75582 10.7778 4.02693V9.9736C11.5956 9.2536 12.1111 8.18693 12.1111 7.00471Z" fill="#323334"/>
</svg>
